<?xml version="1.0" encoding="utf-8"?>
<!-- Generator: Adobe Illustrator 21.0.0, SVG Export Plug-In . SVG Version: 6.00 Build 0)  -->
<svg version="1.1" id="Layer_1" xmlns="http://www.w3.org/2000/svg" xmlns:xlink="http://www.w3.org/1999/xlink" x="0px" y="0px"
	 width="158.7px" height="25.7px" viewBox="0 0 158.7 25.7" style="enable-background:new 0 0 158.7 25.7;" xml:space="preserve">
<style type="text/css">
	.st0{fill:#FFFFFF;}
</style>
<g>
	<path class="st0" d="M3.9,0H3C2.7,0,2.3,0.1,2,0.3C1.7,0.5,1.4,0.8,1.1,1.1C0.9,1.3,0.7,1.5,0.6,1.8C0.5,2,0.3,2.2,0.3,2.4
		C0.2,2.7,0.1,2.9,0.1,3.2C0,3.5,0,3.8,0,4.2V15c0,1.2,0.2,2.3,0.6,3.1c0.4,0.9,1.1,1.5,1.9,2c0.9,0.5,2,0.7,3.3,0.7
		c0.8,0,1.4-0.1,1.9-0.3c0.5-0.2,0.9-0.5,1.1-0.9c0.3-0.4,0.4-0.9,0.4-1.4v-1.4H9.2C8.9,17,8.5,17.2,8,17.3c-0.5,0.1-1,0.1-1.6,0.1
		c-0.5,0-1-0.1-1.3-0.3c-0.4-0.2-0.7-0.5-0.8-0.9c-0.2-0.4-0.3-1-0.3-1.6V8.4H7c0.5,0,1-0.1,1.3-0.3c0.3-0.2,0.6-0.4,0.8-0.7
		c0.2-0.3,0.2-0.6,0.2-0.8V5H3.9V0z"/>
	<path class="st0" d="M82.3,6.5c-0.6-0.6-1.2-1.1-2-1.4c-0.8-0.3-1.7-0.5-2.6-0.5c-1.3,0-2.4,0.2-3.4,0.6c-1,0.4-1.8,1-2.5,1.7
		c-0.7,0.7-1.2,1.6-1.6,2.5c-0.4,1-0.5,2-0.5,3.1c0,0.9,0.2,1.8,0.5,2.6c0.3,0.8,0.8,1.4,1.3,2c0.6,0.6,1.3,1,2.1,1.3
		c0.8,0.3,1.7,0.5,2.6,0.5c0.8,0,1.4-0.1,2-0.4c0.6-0.2,1-0.5,1.4-0.9c0.4-0.4,0.6-0.7,0.7-1.1v2c0,0.8-0.1,1.4-0.4,1.9
		c-0.3,0.5-0.7,0.9-1.3,1.2c-0.6,0.3-1.4,0.4-2.3,0.4c-0.8,0-1.4-0.1-2.1-0.2c-0.6-0.1-1.2-0.3-1.7-0.6c-0.5-0.3-0.9-0.5-1.2-0.9H71
		v1.8c0,0.6,0.2,1.2,0.7,1.7c0.5,0.5,1.1,0.9,1.9,1.2c0.8,0.3,1.8,0.5,2.8,0.5c1,0,1.9-0.1,2.7-0.4c0.8-0.3,1.5-0.6,2.1-1.1
		c0.6-0.5,1.1-1,1.5-1.6c0.9-1.4,1.1-2.7,1.1-4.3v-6.8c0-1-0.2-1.9-0.4-2.8C83.3,7.9,82.8,7.2,82.3,6.5z M78.5,15.2
		c-0.5,0.3-1.1,0.5-1.7,0.5c-0.6,0-1.2-0.2-1.6-0.5c-0.5-0.3-0.8-0.7-1.1-1.3c-0.3-0.5-0.4-1.1-0.4-1.8c0-0.8,0.2-1.5,0.5-2.1
		c0.3-0.6,0.7-1.1,1.2-1.4c0.5-0.3,1.1-0.5,1.8-0.5c0.6,0,1.1,0.1,1.5,0.4c1.1,0.6,1.5,2.1,1.5,3.3C80.2,13,79.6,14.5,78.5,15.2z"/>
	<path class="st0" d="M64.5,6.3c-0.6-0.6-1.3-1-2.1-1.2c-0.8-0.3-1.6-0.4-2.5-0.4c-0.6,0-1.2,0.1-1.8,0.3c-0.6,0.2-1.1,0.5-1.6,0.9
		c-0.5,0.4-0.8,0.8-1.2,1.3c-0.6-0.8-1.3-1.4-2-1.8c-0.8-0.4-1.7-0.7-2.7-0.7c-1.2,0-2.2,0.2-3.1,0.5c-0.9,0.3-1.6,0.8-2.2,1.4
		c-0.6,0.6-1,1.4-1.3,2.3c-0.3,0.9-0.4,1.8-0.4,2.9v6.1c0,0.6,0.1,1.1,0.4,1.5c0.2,0.4,0.6,0.7,1,1c0.4,0.2,0.9,0.3,1.4,0.3h1v-9.3
		c0-0.7,0.1-1.3,0.3-1.8c0.2-0.5,0.5-0.9,0.9-1.1c0.4-0.3,0.8-0.4,1.4-0.4c0.6,0,1.1,0.1,1.5,0.4c0.4,0.3,0.8,0.7,1,1.2
		c0.2,0.5,0.4,1.2,0.4,2.1v6.1c0,0.6,0.1,1.1,0.4,1.6c0.2,0.4,0.6,0.7,1,1c0.4,0.2,0.9,0.3,1.5,0.3h1v-9.3c0-0.7,0.1-1.3,0.3-1.8
		c0.2-0.5,0.5-0.8,0.9-1.1c0.4-0.2,0.9-0.4,1.4-0.4c0.6,0,1.1,0.1,1.5,0.4c0.4,0.3,0.8,0.7,1,1.2c0.2,0.5,0.4,1.2,0.4,2.1v6.1
		c0,0.6,0.1,1.1,0.3,1.6c0.2,0.4,0.5,0.7,1,1c0.4,0.2,1,0.3,1.7,0.3h1v-9.4c0-1.1-0.2-2.1-0.5-2.9C65.6,7.5,65.1,6.8,64.5,6.3z"/>
	<path class="st0" d="M38.4,6.2c-0.6-0.5-1.3-0.9-2.1-1.1c-0.8-0.2-1.6-0.3-2.5-0.3c-1,0-1.9,0.1-2.6,0.4c-0.7,0.2-1.3,0.5-1.8,0.9
		c-0.5,0.4-0.8,0.8-1,1.2c-0.2,0.5-0.3,0.9-0.3,1.3v1.3h0.1c0.1-0.2,0.4-0.4,0.6-0.6c0.3-0.2,0.6-0.4,1-0.6c0.4-0.2,0.9-0.3,1.4-0.5
		C31.9,8,32.5,8,33.2,8C34,8,34.6,8,35.1,8.2c0.5,0.2,0.9,0.5,1.1,0.9c0.2,0.4,0.4,1,0.4,1.7v0.2h-1.4c-1.4,0-2.7,0.1-3.6,0.4
		c-1,0.2-1.8,0.6-2.4,1c-0.6,0.4-1.1,1-1.3,1.6c-0.3,0.6-0.4,1.2-0.4,1.9c0,0.7,0.2,1.4,0.5,2c0.3,0.6,0.7,1.1,1.3,1.6
		c0.6,0.4,1.2,0.8,2,1c0.8,0.2,1.6,0.4,2.6,0.4h0.8c0.9,0,1.7-0.1,2.4-0.4c0.7-0.3,1.3-0.7,1.9-1.2c0.5-0.5,0.9-1.1,1.2-1.8
		c0.3-0.7,0.4-1.4,0.4-2.3v-3.6c0-1.3-0.2-2.5-0.5-3.4C39.5,7.4,39,6.7,38.4,6.2z M36.6,15.4c0,0.8-0.2,1.4-0.6,1.8
		c-0.4,0.4-1,0.6-1.9,0.6c-0.9,0-1.5-0.2-2-0.5c-0.5-0.3-0.7-0.8-0.7-1.4c0-0.4,0.1-0.8,0.3-1.1c0.2-0.3,0.6-0.5,1.2-0.7
		c0.6-0.2,1.3-0.2,2.3-0.2h1.4V15.4z"/>
	<path class="st0" d="M21.9,14.2c1.1-0.2,1.9-0.6,2.4-1.2c0.5-0.6,0.8-1.3,0.8-2.3c0-0.9-0.2-1.8-0.5-2.5c-0.3-0.7-0.8-1.4-1.4-1.9
		c-0.6-0.5-1.3-0.9-2-1.2c-0.7-0.3-1.5-0.4-2.4-0.4c-1.1,0-2.2,0.2-3.1,0.6c-0.9,0.4-1.7,1-2.4,1.7c-0.7,0.7-1.2,1.6-1.6,2.7
		c-0.4,1-0.6,2.2-0.6,3.5c0,1,0.1,1.8,0.4,2.7c0.3,0.8,0.7,1.5,1.2,2.2c0.5,0.6,1.1,1.2,1.7,1.6c0.7,0.5,1.4,0.8,2.1,1
		c0.7,0.2,1.5,0.4,2.3,0.4c1.1,0,2-0.1,2.7-0.3c0.7-0.2,1.3-0.4,1.7-0.8c0.4-0.3,0.8-0.7,0.9-1.1c0.2-0.4,0.3-0.9,0.3-1.4v-1.2h-0.1
		c-0.4,0.4-0.9,0.7-1.4,0.9c-0.5,0.2-1.1,0.4-1.7,0.5c-0.6,0.1-1.1,0.1-1.7,0.1c-0.8,0-1.5-0.1-2.1-0.4c-0.6-0.3-1.1-0.6-1.5-1.1
		c-0.4-0.5-0.7-1.1-0.8-1.7h2.6C19.4,14.5,20.8,14.4,21.9,14.2z M15.1,11.7l0-0.5c0-0.6,0.2-1.2,0.5-1.7c0.3-0.5,0.7-0.9,1.1-1.2
		c0.5-0.3,1-0.5,1.7-0.5C19,7.9,19.5,8,20,8.1c0.4,0.2,0.8,0.4,1,0.8c0.2,0.3,0.4,0.8,0.4,1.3c0,0.3-0.1,0.5-0.2,0.7
		c-0.1,0.2-0.4,0.4-0.7,0.5c-0.3,0.1-0.8,0.2-1.4,0.3c-0.6,0.1-1.4,0.1-2.3,0.1H15.1z"/>
	<path class="st0" d="M98.3,6.2C97.7,5.6,97,5.3,96.2,5c-0.8-0.2-1.6-0.3-2.5-0.3c-1,0-1.9,0.1-2.6,0.4c-0.7,0.2-1.3,0.5-1.8,0.9
		c-0.5,0.4-0.8,0.8-1,1.2C88.1,7.6,88,8.1,88,8.5v1.3h0.1c0.1-0.2,0.4-0.4,0.6-0.6c0.3-0.2,0.6-0.4,1-0.6c0.4-0.2,0.9-0.3,1.4-0.5
		C91.8,8,92.4,8,93.1,8C93.9,8,94.5,8,95,8.2c0.5,0.2,0.9,0.5,1.1,0.9c0.2,0.4,0.4,1,0.4,1.7v0.2h-1.4c-1.4,0-2.7,0.1-3.6,0.4
		c-1,0.2-1.8,0.6-2.4,1c-0.6,0.4-1.1,1-1.3,1.6c-0.3,0.6-0.4,1.2-0.4,1.9c0,0.7,0.2,1.4,0.5,2c0.3,0.6,0.7,1.1,1.3,1.6
		c0.6,0.4,1.2,0.8,2,1c0.8,0.2,1.6,0.4,2.6,0.4h0.8c0.9,0,1.7-0.1,2.4-0.4c0.7-0.3,1.3-0.7,1.9-1.2c0.5-0.5,0.9-1.1,1.2-1.8
		c0.3-0.7,0.4-1.4,0.4-2.3v-3.6c0-1.3-0.2-2.5-0.5-3.4C99.4,7.4,98.9,6.7,98.3,6.2z M96.5,15.4c0,0.8-0.2,1.4-0.6,1.8
		c-0.4,0.4-1,0.6-1.9,0.6c-0.9,0-1.5-0.2-2-0.5c-0.5-0.3-0.7-0.8-0.7-1.4c0-0.4,0.1-0.8,0.3-1.1c0.2-0.3,0.6-0.5,1.2-0.7
		c0.6-0.2,1.3-0.2,2.3-0.2h1.4V15.4z"/>
	<path class="st0" d="M125.6,14.2c1.1-0.2,1.9-0.6,2.4-1.2c0.5-0.6,0.8-1.3,0.8-2.3c0-0.9-0.2-1.8-0.5-2.5c-0.3-0.7-0.8-1.4-1.4-1.9
		c-0.6-0.5-1.3-0.9-2-1.2c-0.7-0.3-1.5-0.4-2.4-0.4c-1.1,0-2.2,0.2-3.1,0.6c-0.9,0.4-1.7,1-2.4,1.7c-0.7,0.7-1.2,1.6-1.6,2.7
		c-0.4,1-0.6,2.2-0.6,3.5c0,1,0.1,1.8,0.4,2.7c0.3,0.8,0.7,1.5,1.2,2.2c0.5,0.6,1.1,1.2,1.7,1.6c0.6,0.5,1.4,0.8,2.1,1
		c0.7,0.2,1.5,0.4,2.3,0.4c1.1,0,2-0.1,2.7-0.3c0.7-0.2,1.3-0.4,1.7-0.8c0.4-0.3,0.8-0.7,0.9-1.1c0.2-0.4,0.3-0.9,0.3-1.4v-1.2H128
		c-0.4,0.4-0.9,0.7-1.4,0.9c-0.5,0.2-1.1,0.4-1.7,0.5c-0.6,0.1-1.1,0.1-1.7,0.1c-0.8,0-1.5-0.1-2.1-0.4c-0.6-0.3-1.1-0.6-1.5-1.1
		c-0.4-0.5-0.7-1.1-0.8-1.7h2.6C123.1,14.5,124.5,14.4,125.6,14.2z M118.8,11.8l0-0.5c0-0.6,0.2-1.2,0.5-1.7
		c0.3-0.5,0.7-0.9,1.1-1.2c0.5-0.3,1-0.5,1.7-0.5c0.6,0,1.1,0.1,1.6,0.3c0.4,0.2,0.8,0.4,1,0.8c0.2,0.3,0.4,0.8,0.4,1.3
		c0,0.3-0.1,0.5-0.2,0.7c-0.1,0.2-0.4,0.3-0.7,0.5c-0.3,0.1-0.8,0.2-1.4,0.3c-0.6,0.1-1.4,0.1-2.3,0.1H118.8z"/>
	<path class="st0" d="M107.5,0h-0.9c-0.3,0-0.6,0.1-1,0.3c-0.3,0.2-0.6,0.5-0.9,0.8c-0.2,0.2-0.4,0.5-0.5,0.7
		c-0.1,0.2-0.3,0.4-0.3,0.7c-0.1,0.2-0.2,0.5-0.2,0.8c0,0.3-0.1,0.6-0.1,1V15c0,1.2,0.2,2.3,0.6,3.1c0.4,0.9,1.1,1.5,1.9,2
		c0.9,0.5,2,0.7,3.3,0.7c0.8,0,1.4-0.1,1.9-0.3c0.5-0.2,0.9-0.5,1.1-0.9c0.3-0.4,0.4-0.9,0.4-1.4v-1.4h-0.1
		c-0.3,0.2-0.7,0.3-1.2,0.4c-0.5,0.1-1,0.1-1.6,0.1c-0.5,0-1-0.1-1.3-0.3c-0.4-0.2-0.6-0.5-0.8-0.9c-0.2-0.4-0.3-1-0.3-1.6V8.4h3.1
		c0.5,0,1-0.1,1.3-0.3c0.3-0.2,0.6-0.4,0.8-0.7c0.2-0.3,0.2-0.6,0.2-0.8V5h-5.4V0z"/>
	<path class="st0" d="M154.2,0h-16.7C135,0,133,2,133,4.5v16.7c0,2.5,2,4.5,4.5,4.5h16.7c2.5,0,4.5-2,4.5-4.5V4.5
		C158.7,2,156.7,0,154.2,0z M145,5.2c0-0.5,0.4-0.8,0.8-0.8c0.5,0,0.8,0.4,0.8,0.8v0.9c-0.2-0.2-0.5-0.2-0.8-0.2
		c-0.3,0-0.6,0.1-0.8,0.2V5.2z M149.1,17.9c0,2.5-2,4.5-4.5,4.5c-1.3,0-2.6-0.6-3.4-1.6l-4.6-5.5c-0.3-0.4-0.3-1,0.1-1.3
		c0.4-0.3,1-0.3,1.3,0.1l5,6c0.1,0.1,0.3,0.2,0.4,0.2c0.2,0,0.3-0.1,0.4-0.2l2.3-2.7c0.3-0.4,0.3-1-0.1-1.3c-0.4-0.3-1-0.3-1.3,0.1
		l-1,1.2c-0.1,0.1-0.2,0.1-0.3,0.1c-0.1,0-0.2,0-0.3-0.1l-3-3.6V7.5c0-0.5,0.4-0.8,0.8-0.8c0.5,0,0.8,0.4,0.8,0.8v5.9
		c0,0.2,0.2,0.4,0.4,0.4c0.2,0,0.4-0.2,0.4-0.4V6.5c0-0.5,0.4-0.8,0.8-0.8c0.5,0,0.8,0.4,0.8,0.8v6.9c0,0.2,0.2,0.4,0.4,0.4
		c0.2,0,0.4-0.2,0.4-0.4V7.5c0-0.5,0.4-0.8,0.8-0.8c0.5,0,0.8,0.4,0.8,0.8v6.6c0,0.2,0.2,0.4,0.4,0.4c0.2,0,0.4-0.2,0.4-0.4v-3.7
		c0-0.5,0.4-0.8,0.8-0.8c0.5,0,0.8,0.4,0.8,0.8V17.9z M149.1,9c-0.2-0.2-0.5-0.2-0.8-0.2c-0.3,0-0.6,0.1-0.8,0.2V4.2
		c0-0.5,0.4-0.8,0.8-0.8s0.8,0.4,0.8,0.8V9z M155.2,13l-4.6,5.5c-0.2,0.3-0.5,0.5-0.8,0.8c0.1-0.4,0.2-0.9,0.2-1.4l0-12.7
		c0-0.5,0.4-0.8,0.8-0.8c0.5,0,0.8,0.4,0.8,0.8v9.1l2.2-2.6c0.3-0.4,0.9-0.4,1.3-0.1C155.5,12,155.5,12.6,155.2,13z"/>
</g>
</svg>
